<svg width="24" height="24" viewBox="0 0 24 24" fill="none" xmlns="http://www.w3.org/2000/svg">
<path d="M15 22.75H9C3.57 22.75 1.25 20.43 1.25 15V9C1.25 3.57 3.57 1.25 9 1.25H15C20.43 1.25 22.75 3.57 22.75 9V15C22.75 20.43 20.43 22.75 15 22.75ZM9 2.75C4.39 2.75 2.75 4.39 2.75 9V15C2.75 19.61 4.39 21.25 9 21.25H15C19.61 21.25 21.25 19.61 21.25 15V9C21.25 4.39 19.61 2.75 15 2.75H9Z" fill="#151716"/>
<path d="M14.9976 10.2602C14.8076 10.2602 14.6175 10.1902 14.4675 10.0402L11.9976 7.57021L9.5275 10.0402C9.2375 10.3302 8.7575 10.3302 8.4675 10.0402C8.1775 9.75019 8.1775 9.2702 8.4675 8.9802L11.4675 5.9802C11.7575 5.6902 12.2376 5.6902 12.5276 5.9802L15.5276 8.9802C15.8176 9.2702 15.8176 9.75019 15.5276 10.0402C15.3776 10.1902 15.1876 10.2602 14.9976 10.2602Z" fill="#151716"/>
<path d="M12 15.2598C11.59 15.2598 11.25 14.9198 11.25 14.5098V6.50977C11.25 6.09977 11.59 5.75977 12 5.75977C12.41 5.75977 12.75 6.09977 12.75 6.50977V14.5098C12.75 14.9298 12.41 15.2598 12 15.2598Z" fill="#151716"/>
<path d="M11.9984 18.2302C9.88849 18.2302 7.76848 17.8902 5.75848 17.2202C5.36848 17.0902 5.15848 16.6602 5.28848 16.2702C5.41848 15.8802 5.8485 15.6602 6.2385 15.8002C9.9585 17.0402 14.0484 17.0402 17.7684 15.8002C18.1585 15.6702 18.5885 15.8802 18.7185 16.2702C18.8485 16.6602 18.6385 17.0902 18.2485 17.2202C16.2285 17.9002 14.1084 18.2302 11.9984 18.2302Z" fill="#151716"/>
</svg>
